<svg width="94" height="94" viewBox="0 0 94 94" fill="none" xmlns="http://www.w3.org/2000/svg">
<path d="M47.4512 21.7748V79.8691M30.9911 33.3937H22.277M33.8959 45.0125H22.277M86.1807 65.3455V18.599C86.1807 13.9515 82.3852 10.5046 77.7764 10.8919H77.544C69.4108 11.589 57.0561 15.733 50.1622 20.0708L49.5038 20.4968C48.3807 21.1939 46.5217 21.1939 45.3985 20.4968L44.4303 19.9158C37.5364 15.6169 25.2204 11.5115 17.0873 10.8531C12.4784 10.4658 8.72168 13.9515 8.72168 18.5603V65.3455C8.72168 69.0636 11.7426 72.5492 15.4606 73.014L16.5838 73.1689C24.9881 74.2921 37.9625 78.5523 45.3985 82.6189L45.5534 82.6964C46.5991 83.2773 48.2645 83.2773 49.2715 82.6964C56.7075 78.591 69.7206 74.2921 78.1637 73.1689L79.4417 73.014C83.1598 72.5492 86.1807 69.0636 86.1807 65.3455Z" stroke="white" stroke-width="5.20524" stroke-linecap="round" stroke-linejoin="round"/>
</svg>
