<svg width="101" height="102" viewBox="0 0 101 102" fill="none" xmlns="http://www.w3.org/2000/svg">
<path d="M39.9521 58.3349C39.9521 62.4142 43.1062 65.6945 46.9753 65.6945H54.8815C58.2459 65.6945 60.9795 62.8348 60.9795 59.2601C60.9795 55.4332 59.2973 54.0454 56.8161 53.1622L44.1576 48.7465C41.6764 47.8633 39.9942 46.5176 39.9942 42.6485C39.9942 39.116 42.7278 36.2142 46.0921 36.2142H53.9984C57.8674 36.2142 61.0215 39.4944 61.0215 43.5737M50.4658 32.0508V69.8999" stroke="white" stroke-width="5.65214" stroke-linecap="round" stroke-linejoin="round"/>
<path d="M92.5204 50.9755C92.5204 74.1897 73.6799 93.0302 50.4658 93.0302C27.2516 93.0302 8.41113 74.1897 8.41113 50.9755C8.41113 27.7614 27.2516 8.9209 50.4658 8.9209M92.5204 25.7428V8.9209M92.5204 8.9209H75.6985M92.5204 8.9209L71.4931 29.9482" stroke="white" stroke-width="5.65214" stroke-linecap="round" stroke-linejoin="round"/>
</svg>
